<svg title="Vacheron Constantin" itemprop="logo" class="vac-logo__img--full" width="286" height="22" viewBox="0 0 286 22" fill="none" xmlns="http://www.w3.org/2000/svg" data-fc-idx="0"><g clip-path="url(#clip0_18014_630)" style="fill: rgb(65, 44, 23) !important;"><path d="M166.937 13.7976C166.922 15.7808 166.087 18.0332 164.996 19.1807C164.146 20.0873 162.517 21.0081 160.746 21.079C157.544 21.2064 155.306 18.4299 154.541 14.2934C154.385 13.3867 154.258 12.1543 154.258 10.8652C154.258 9.57605 154.357 8.21611 154.598 7.11115C155.405 3.47045 157.134 0.594727 160.873 0.594727C161.908 0.594727 163.338 0.750554 164.755 2.12467C166.837 4.02293 166.936 6.5445 166.951 7.53613H164.117C164.032 6.43117 163.367 3.68294 160.477 3.96627C159.131 4.09376 158.083 5.41121 157.615 7.06865C157.417 7.76279 157.219 9.05191 157.162 10.4544C157.119 11.8426 157.219 13.3442 157.615 14.5484C158.083 15.965 158.734 16.8291 159.471 17.2824C159.839 17.4949 160.222 17.6083 160.633 17.6083C161.029 17.6366 161.468 17.5516 161.879 17.3958C163.933 16.6166 163.99 14.6334 164.117 13.7834H166.951L166.937 13.7976Z" fill="#412C17" style="fill: rgb(65, 44, 23) !important;"/><path d="M180.752 18.6424C179.547 20.3281 177.777 21.079 175.949 21.079C174.122 21.079 172.351 20.3281 171.147 18.6424C169.801 16.7441 169.008 13.7976 169.008 10.8368C169.008 7.87612 169.801 4.94373 171.147 3.0313C172.351 1.34553 174.108 0.594727 175.949 0.594727C177.791 0.594727 179.547 1.34553 180.752 3.0313C182.097 4.92956 182.891 7.87612 182.891 10.8368C182.891 13.7976 182.097 16.7299 180.752 18.6424ZM178.598 16.2625C179.547 15.0867 180.029 12.9618 180.043 10.851C180.029 8.72608 179.547 6.61533 178.598 5.43954C177.847 4.50458 176.898 4.12209 175.949 4.12209C175 4.12209 174.051 4.49041 173.3 5.43954C172.351 6.61533 171.884 8.74025 171.855 10.851C171.869 12.9618 172.351 15.0867 173.3 16.2625C174.051 17.1974 175 17.5799 175.949 17.5799C176.898 17.5799 177.847 17.2116 178.598 16.2625Z" fill="#412C17" style="fill: rgb(65, 44, 23) !important;"/><path d="M188.425 0.93457L194.247 14.3641V0.93457H197.222V20.4697H194.289L188.453 6.85601V20.4697H185.492V0.93457H188.425Z" fill="#412C17" style="fill: rgb(65, 44, 23) !important;"/><path d="M208.229 6.88449C208.271 5.29788 207.294 3.85294 205.254 3.79627C203.809 3.76794 202.746 4.43375 202.647 6.04869C202.562 7.39447 202.902 7.66363 203.554 8.00361C203.894 8.48526 206.628 9.08024 207.18 9.20773C207.974 9.39189 209.674 9.87354 210.58 11.1343C212.238 13.4859 211.473 18.1324 209.674 19.7048C208.441 20.7815 206.77 21.0506 205.169 21.079C204.432 21.1073 202.69 20.7531 201.627 19.7048C200.338 18.444 199.701 16.5175 199.602 14.6617H202.491C202.491 15.1717 202.605 15.9791 203.101 16.6733C203.752 17.5799 204.815 17.8774 205.806 17.8207C206.798 17.7924 207.719 17.3958 208.101 16.9141C208.739 16.1066 208.88 14.5767 208.158 13.6134C207.209 12.2676 204.361 12.2676 202.506 11.4177C200.947 10.6952 199.658 9.16523 199.899 6.00619C200.14 2.90381 201.797 0.594727 205.311 0.594727C206.09 0.594727 208.767 0.679723 210.184 3.08797C210.934 4.40542 211.133 6.21868 211.019 6.87032H208.229V6.88449Z" fill="#412C17" style="fill: rgb(65, 44, 23) !important;"/><path d="M224.538 0.93457V4.27778H220.33V20.4697H217.355V4.27778H212.992V0.93457H224.538Z" fill="#412C17" style="fill: rgb(65, 44, 23) !important;"/><path d="M237.542 20.4697H234.511L233.519 16.5598H228.178L227.173 20.4697H224.07L229.17 0.93457H232.598L237.542 20.4697ZM229.113 13.2024H232.811L230.898 5.62356L229.113 13.2024Z" fill="#412C17" style="fill: rgb(65, 44, 23) !important;"/><path d="M242.723 0.93457L248.559 14.3641V0.93457H251.534V20.4697H248.602L242.765 6.85601V20.4697H239.805V0.93457H242.723Z" fill="#412C17" style="fill: rgb(65, 44, 23) !important;"/><path d="M265.108 0.93457V4.27778H260.901V20.4697H257.926V4.27778H253.562V0.93457H265.108Z" fill="#412C17" style="fill: rgb(65, 44, 23) !important;"/><path d="M270.125 0.93457H267.164V20.4697H270.125V0.93457Z" fill="#412C17" style="fill: rgb(65, 44, 23) !important;"/><path d="M276.231 0.93457L282.067 14.3641V0.93457H285.042V20.4697H282.11L276.273 6.85601V20.4697H273.312V0.93457H276.231Z" fill="#412C17" style="fill: rgb(65, 44, 23) !important;"/><path d="M40.4365 13.9392C40.4223 15.9224 39.5865 18.1748 38.4957 19.3223C37.6458 20.2289 36.0167 21.1497 34.2459 21.2206C31.0444 21.348 28.8061 18.5715 28.027 14.435C27.8711 13.5283 27.7578 12.2959 27.7578 11.0068C27.7578 9.71765 27.857 8.35771 28.0978 7.25275C28.9053 3.61205 30.6335 0.736328 34.3734 0.736328C35.4075 0.736328 36.8525 0.892156 38.2549 2.26627C40.3373 4.16453 40.4365 6.6861 40.4507 7.67773H37.6174C37.5466 6.57277 36.8666 3.82454 33.9767 4.10787C32.631 4.23536 31.5827 5.55281 31.1152 7.21025C30.9169 7.90439 30.7185 9.19351 30.6619 10.596C30.6194 11.9842 30.7185 13.4858 31.1152 14.69C31.5827 16.1066 32.2485 16.9707 32.9709 17.424C33.3393 17.6365 33.7218 17.7499 34.1326 17.7499C34.5292 17.7782 34.9684 17.6932 35.3792 17.5374C37.4333 16.7582 37.4899 14.775 37.6174 13.925H40.4507L40.4365 13.9392Z" fill="#412C17" style="fill: rgb(65, 44, 23) !important;"/><path d="M43.0547 1.07617H46.0154V8.42839H51.7385V1.07617H54.6992V20.6254H51.7385V11.7716H46.0154V20.6254H43.0547V1.07617Z" fill="#412C17" style="fill: rgb(65, 44, 23) !important;"/><path d="M68.542 1.07617V4.43355H61.0623V8.88171H67.9612V12.2249H61.0623V17.2681H68.882V20.6254H58.1016V1.07617H68.542Z" fill="#412C17" style="fill: rgb(65, 44, 23) !important;"/><path d="M71.8579 1.07617H79.8618C81.3067 1.16117 82.7658 2.0678 83.1908 4.19272C83.3891 5.04269 83.6866 6.44513 83.3325 8.1309C82.9783 9.81667 82.3409 10.44 81.3776 11.2191C81.8734 11.6724 82.8225 12.1541 82.9783 13.9249C83.0633 14.7323 83.0917 17.2964 83.12 18.288C83.12 19.393 83.3608 19.6338 83.6725 19.903V20.6254H80.4851C80.2443 20.0305 80.1309 19.4496 80.0884 18.798C80.0459 17.8347 80.0459 16.2764 80.0884 14.8598C80.0459 13.5424 79.3376 12.9049 78.3035 12.9049H74.8186V20.6254H71.8438V1.07617H71.8579ZM74.8328 9.54752H78.8843C79.5785 9.54752 80.8251 8.55589 80.6409 6.62929C80.6409 5.24101 80.1593 4.43355 78.8418 4.43355H74.8328V9.54752Z" fill="#412C17" style="fill: rgb(65, 44, 23) !important;"/><path d="M97.6422 18.7986C96.438 20.4844 94.6814 21.2352 92.8398 21.2352C90.9982 21.2352 89.2416 20.4844 88.0375 18.7986C86.6917 16.9004 85.8984 13.9538 85.8984 10.9931C85.8984 8.03237 86.6917 5.09998 88.0375 3.18755C89.2416 1.50178 90.9982 0.750977 92.8398 0.750977C94.6814 0.750977 96.438 1.50178 97.6422 3.18755C98.9879 5.08581 99.7812 8.03237 99.7812 10.9931C99.7812 13.9538 98.9879 16.8862 97.6422 18.7986ZM95.4889 16.4187C96.438 15.2429 96.9055 13.118 96.9338 11.0073C96.9197 8.88233 96.438 6.77158 95.4889 5.59579C94.7381 4.66083 93.789 4.27834 92.8398 4.27834C91.8907 4.27834 90.9416 4.64666 90.1908 5.59579C89.2416 6.77158 88.76 8.8965 88.7458 11.0073C88.76 13.118 89.2416 15.2429 90.1908 16.4187C90.9416 17.3537 91.8907 17.7362 92.8398 17.7362C93.789 17.7362 94.7381 17.3678 95.4889 16.4187Z" fill="#412C17" style="fill: rgb(65, 44, 23) !important;"/><path d="M105.315 1.07617L111.137 14.5057V1.07617H114.112V20.6254H111.18L105.344 6.99761V20.6254H102.383V1.07617H105.315Z" fill="#412C17" style="fill: rgb(65, 44, 23) !important;"/><path d="M9.55423 1.07617L6.39518 15.8231L3.2078 1.07617H0.21875L5.10607 20.6254H7.65597L12.5433 1.07617H9.55423Z" fill="#412C17" style="fill: rgb(65, 44, 23) !important;"/><path d="M25.9558 20.6254H22.9243L21.9327 16.7156H16.592L15.5862 20.6254H12.5547L17.5978 1.07617H21.0119L25.9558 20.6113V20.6254ZM17.527 13.3582H21.2244L19.2978 5.77933L17.5128 13.3582H17.527Z" fill="#412C17" style="fill: rgb(65, 44, 23) !important;"/><path d="M124.966 10.9929L123.195 6.04894L132.332 10.0013C132.403 10.0296 132.488 10.0438 132.573 10.0438C132.757 10.0438 132.927 9.97296 133.041 9.84546C133.168 9.71797 133.239 9.56214 133.239 9.37798C133.239 9.29298 133.225 9.20798 133.197 9.13715L129.244 0L134.188 1.78493L139.132 0L135.18 9.13715C135.152 9.20798 135.137 9.29298 135.137 9.37798C135.137 9.56214 135.208 9.73213 135.336 9.84546C135.463 9.97296 135.619 10.0438 135.803 10.0438C135.888 10.0438 135.973 10.0296 136.044 10.0013L145.181 6.04894L143.41 10.9929L145.181 15.9369L136.044 11.9845C135.973 11.9562 135.888 11.942 135.803 11.942C135.619 11.942 135.449 12.0129 135.336 12.1404C135.222 12.2537 135.137 12.4237 135.137 12.6079C135.137 12.6929 135.152 12.7779 135.18 12.8487L139.132 21.9858L134.188 20.2009L129.244 21.9858L133.197 12.8487C133.225 12.7779 133.239 12.6929 133.239 12.6079C133.239 12.4237 133.168 12.2537 133.041 12.1404C132.913 12.027 132.757 11.942 132.573 11.942C132.488 11.942 132.403 11.9562 132.332 11.9845L123.195 15.9369L124.966 10.9929Z" fill="#412C17" style="fill: rgb(65, 44, 23) !important;"/></g><defs style="fill: rgb(65, 44, 23) !important;"><clipPath id="clip0_18014_630" style="fill: rgb(65, 44, 23) !important;"><rect width="284.824" height="22" fill="white" transform="translate(0.21875)" style="fill: rgb(255, 255, 255) !important;"/></clipPath></defs></svg>